<svg width="967" height="951" viewBox="0 0 967 951" xmlns="http://www.w3.org/2000/svg" xmlns:xlink="http://www.w3.org/1999/xlink" fill="none" overflow="hidden"><rect x="0" y="0" width="967" height="951" fill="#FFFFFF"/><path d="M74.5586 85.5703C74.5586 85.2422 74.5078 84.9492 74.4062 84.6914 74.3125 84.4258 74.1367 84.1875 73.8789 83.9766 73.6289 83.7578 73.2734 83.5469 72.8125 83.3438 72.3594 83.1328 71.7734 82.9141 71.0547 82.6875 70.2578 82.4375 69.5156 82.1562 68.8281 81.8438 68.1406 81.5312 67.5352 81.168 67.0117 80.7539 66.4961 80.3398 66.0938 79.8633 65.8047 79.3242 65.5156 78.7773 65.3711 78.1445 65.3711 77.4258 65.3711 76.7227 65.5195 76.082 65.8164 75.5039 66.1211 74.9258 66.5508 74.4297 67.1055 74.0156 67.6602 73.5938 68.3125 73.2695 69.0625 73.043 69.8203 72.8164 70.6562 72.7031 71.5703 72.7031 72.8359 72.7031 73.9297 72.9336 74.8516 73.3945 75.7812 73.8555 76.5 74.4805 77.0078 75.2695 77.5156 76.0586 77.7695 76.9453 77.7695 77.9297L74.5586 77.9297C74.5586 77.3984 74.4453 76.9297 74.2188 76.5234 74 76.1172 73.6641 75.7969 73.2109 75.5625 72.7656 75.3281 72.2031 75.2109 71.5234 75.2109 70.8672 75.2109 70.3203 75.3086 69.8828 75.5039 69.4531 75.6992 69.1289 75.9648 68.9102 76.3008 68.6992 76.6367 68.5938 77.0117 68.5938 77.4258 68.5938 77.7383 68.668 78.0195 68.8164 78.2695 68.9648 78.5117 69.1875 78.7422 69.4844 78.9609 69.7812 79.1719 70.1484 79.3711 70.5859 79.5586 71.0312 79.7383 71.5469 79.918 72.1328 80.0977 73.0703 80.3789 73.8906 80.6914 74.5938 81.0352 75.3047 81.3789 75.8945 81.7695 76.3633 82.207 76.8398 82.6445 77.1953 83.1367 77.4297 83.6836 77.6719 84.2305 77.793 84.8516 77.793 85.5469 77.793 86.2812 77.6484 86.9375 77.3594 87.5156 77.0703 88.0938 76.6562 88.5859 76.1172 88.9922 75.5781 89.3984 74.9297 89.707 74.1719 89.918 73.4219 90.1289 72.582 90.2344 71.6523 90.2344 70.8242 90.2344 70.0039 90.125 69.1914 89.9062 68.3867 89.6797 67.6562 89.3438 67 88.8984 66.3438 88.4453 65.8203 87.875 65.4297 87.1875 65.0391 86.4922 64.8438 85.6797 64.8438 84.75L68.0781 84.75C68.0781 85.2891 68.1641 85.75 68.3359 86.1328 68.5156 86.5078 68.7656 86.8164 69.0859 87.0586 69.4141 87.293 69.7969 87.4648 70.2344 87.5742 70.6719 87.6836 71.1445 87.7383 71.6523 87.7383 72.3086 87.7383 72.8477 87.6484 73.2695 87.4688 73.6992 87.2812 74.0195 87.0234 74.2305 86.6953 74.4492 86.3672 74.5586 85.9922 74.5586 85.5703ZM83.1367 79.7578 83.1367 94.875 80.0312 94.875 80.0312 77.3203 82.9023 77.3203 83.1367 79.7578ZM91.2812 83.5312 91.2812 83.7773C91.2812 84.6992 91.1719 85.5547 90.9531 86.3438 90.7422 87.125 90.4297 87.8086 90.0156 88.3945 89.6016 88.9727 89.0859 89.4258 88.4688 89.7539 87.8594 90.0742 87.1562 90.2344 86.3594 90.2344 85.5781 90.2344 84.8984 90.0859 84.3203 89.7891 83.7422 89.4844 83.2539 89.0547 82.8555 88.5 82.457 87.9453 82.1367 87.3008 81.8945 86.5664 81.6602 85.8242 81.4844 85.0156 81.3672 84.1406L81.3672 83.3555C81.4844 82.4258 81.6602 81.582 81.8945 80.8242 82.1367 80.0586 82.457 79.3984 82.8555 78.8438 83.2539 78.2812 83.7383 77.8477 84.3086 77.543 84.8867 77.2383 85.5625 77.0859 86.3359 77.0859 87.1406 77.0859 87.8477 77.2383 88.457 77.543 89.0742 77.8477 89.5938 78.2852 90.0156 78.8555 90.4375 79.4258 90.7539 80.1055 90.9648 80.8945 91.1758 81.6836 91.2812 82.5625 91.2812 83.5312ZM88.1758 83.7773 88.1758 83.5312C88.1758 82.9688 88.125 82.4492 88.0234 81.9727 87.9219 81.4883 87.7656 81.0664 87.5547 80.707 87.3438 80.3398 87.0703 80.0547 86.7344 79.8516 86.3984 79.6484 85.9922 79.5469 85.5156 79.5469 85.0391 79.5469 84.6289 79.625 84.2852 79.7812 83.9414 79.9375 83.6602 80.1602 83.4414 80.4492 83.2227 80.7383 83.0508 81.082 82.9258 81.4805 82.8086 81.8711 82.7305 82.3047 82.6914 82.7812L82.6914 84.7266C82.7617 85.3047 82.8984 85.8242 83.1016 86.2852 83.3047 86.7461 83.6016 87.1133 83.9922 87.3867 84.3906 87.6602 84.9062 87.7969 85.5391 87.7969 86.0156 87.7969 86.4219 87.6914 86.7578 87.4805 87.0938 87.2695 87.3672 86.9805 87.5781 86.6133 87.7891 86.2383 87.9414 85.8086 88.0352 85.3242 88.1289 84.8398 88.1758 84.3242 88.1758 83.7773ZM100.527 87.3047 100.527 81.457C100.527 81.0273 100.453 80.6562 100.305 80.3438 100.156 80.0312 99.9297 79.7891 99.625 79.6172 99.3203 79.4453 98.9336 79.3594 98.4648 79.3594 98.0508 79.3594 97.6875 79.4297 97.375 79.5703 97.0703 79.7109 96.8359 79.9102 96.6719 80.168 96.5078 80.418 96.4258 80.707 96.4258 81.0352L93.3203 81.0352C93.3203 80.5117 93.4453 80.0156 93.6953 79.5469 93.9453 79.0703 94.3008 78.6484 94.7617 78.2812 95.2305 77.9062 95.7891 77.6133 96.4375 77.4023 97.0938 77.1914 97.8281 77.0859 98.6406 77.0859 99.6016 77.0859 100.457 77.25 101.207 77.5781 101.965 77.8984 102.559 78.3828 102.988 79.0312 103.426 79.6797 103.645 80.4961 103.645 81.4805L103.645 87.0117C103.645 87.6445 103.684 88.1875 103.762 88.6406 103.848 89.0859 103.973 89.4727 104.137 89.8008L104.137 90 100.984 90C100.836 89.6797 100.723 89.2734 100.645 88.7812 100.566 88.2812 100.527 87.7891 100.527 87.3047ZM100.961 82.2773 100.984 84.1172 99.0273 84.1172C98.543 84.1172 98.1172 84.168 97.75 84.2695 97.3828 84.3633 97.082 84.5039 96.8477 84.6914 96.6133 84.8711 96.4375 85.0898 96.3203 85.3477 96.2031 85.5977 96.1445 85.8828 96.1445 86.2031 96.1445 86.5156 96.2148 86.7969 96.3555 87.0469 96.5039 87.2969 96.7148 87.4961 96.9883 87.6445 97.2695 87.7852 97.5977 87.8555 97.9727 87.8555 98.5195 87.8555 98.9961 87.7461 99.4023 87.5273 99.8086 87.3008 100.125 87.0273 100.352 86.707 100.578 86.3867 100.699 86.082 100.715 85.793L101.605 87.1289C101.496 87.4492 101.332 87.7891 101.113 88.1484 100.895 88.5078 100.613 88.8438 100.27 89.1562 99.9258 89.4688 99.5117 89.7266 99.0273 89.9297 98.543 90.1328 97.9805 90.2344 97.3398 90.2344 96.5195 90.2344 95.7852 90.0703 95.1367 89.7422 94.4883 89.4141 93.9766 88.9648 93.6016 88.3945 93.2266 87.8242 93.0391 87.1758 93.0391 86.4492 93.0391 85.7773 93.1641 85.1836 93.4141 84.668 93.6641 84.1523 94.0352 83.7188 94.5273 83.3672 95.0195 83.0078 95.6289 82.7383 96.3555 82.5586 97.0898 82.3711 97.9297 82.2773 98.875 82.2773L100.961 82.2773ZM111.637 87.7969C112.074 87.7969 112.465 87.7109 112.809 87.5391 113.152 87.3672 113.426 87.125 113.629 86.8125 113.84 86.5 113.953 86.1367 113.969 85.7227L116.887 85.7227C116.871 86.582 116.629 87.3516 116.16 88.0312 115.691 88.7109 115.066 89.25 114.285 89.6484 113.512 90.0391 112.645 90.2344 111.684 90.2344 110.707 90.2344 109.855 90.0703 109.129 89.7422 108.402 89.4141 107.797 88.957 107.312 88.3711 106.836 87.7852 106.477 87.1055 106.234 86.332 106 85.5586 105.883 84.7305 105.883 83.8477L105.883 83.4727C105.883 82.5898 106 81.7617 106.234 80.9883 106.477 80.2148 106.836 79.5352 107.312 78.9492 107.797 78.3633 108.402 77.9062 109.129 77.5781 109.855 77.25 110.703 77.0859 111.672 77.0859 112.695 77.0859 113.594 77.2852 114.367 77.6836 115.148 78.082 115.758 78.6445 116.195 79.3711 116.641 80.0977 116.871 80.9531 116.887 81.9375L113.969 81.9375C113.953 81.4844 113.852 81.0781 113.664 80.7188 113.477 80.3594 113.211 80.0703 112.867 79.8516 112.523 79.6328 112.105 79.5234 111.613 79.5234 111.09 79.5234 110.652 79.6328 110.301 79.8516 109.957 80.0703 109.688 80.3711 109.492 80.7539 109.305 81.1289 109.172 81.5508 109.094 82.0195 109.023 82.4805 108.988 82.9648 108.988 83.4727L108.988 83.8477C108.988 84.3633 109.023 84.8555 109.094 85.3242 109.172 85.793 109.305 86.2148 109.492 86.5898 109.688 86.957 109.957 87.25 110.301 87.4688 110.652 87.6875 111.098 87.7969 111.637 87.7969ZM122.23 77.3203 122.23 90 119.125 90 119.125 77.3203 122.23 77.3203ZM118.914 74.0039C118.914 73.543 119.07 73.1602 119.383 72.8555 119.703 72.5508 120.133 72.3984 120.672 72.3984 121.211 72.3984 121.637 72.5508 121.949 72.8555 122.27 73.1602 122.43 73.543 122.43 74.0039 122.43 74.457 122.27 74.8359 121.949 75.1406 121.637 75.4453 121.211 75.5977 120.672 75.5977 120.133 75.5977 119.703 75.4453 119.383 75.1406 119.07 74.8359 118.914 74.457 118.914 74.0039ZM128.219 80.0273 128.219 90 125.125 90 125.125 77.3203 128.031 77.3203 128.219 80.0273ZM127.727 83.2031 126.812 83.2031C126.82 82.2812 126.945 81.4453 127.188 80.6953 127.43 79.9453 127.77 79.3008 128.207 78.7617 128.652 78.2227 129.18 77.8086 129.789 77.5195 130.398 77.2305 131.078 77.0859 131.828 77.0859 132.438 77.0859 132.988 77.1719 133.48 77.3438 133.973 77.5156 134.395 77.7891 134.746 78.1641 135.105 78.5391 135.379 79.0312 135.566 79.6406 135.762 80.2422 135.859 80.9844 135.859 81.8672L135.859 90 132.742 90 132.742 81.8438C132.742 81.2656 132.656 80.8086 132.484 80.4727 132.32 80.1367 132.078 79.8984 131.758 79.7578 131.445 79.6172 131.059 79.5469 130.598 79.5469 130.121 79.5469 129.703 79.6445 129.344 79.8398 128.992 80.0273 128.695 80.2891 128.453 80.625 128.219 80.9609 128.039 81.3477 127.914 81.7852 127.789 82.2227 127.727 82.6953 127.727 83.2031ZM146.652 77.3203 149.465 77.3203 149.465 89.6133C149.465 90.7617 149.215 91.7344 148.715 92.5312 148.223 93.3359 147.531 93.9453 146.641 94.3594 145.75 94.7812 144.715 94.9922 143.535 94.9922 143.027 94.9922 142.477 94.9219 141.883 94.7812 141.297 94.6406 140.73 94.418 140.184 94.1133 139.645 93.8164 139.195 93.4297 138.836 92.9531L140.23 91.125C140.652 91.6172 141.129 91.9883 141.66 92.2383 142.191 92.4961 142.766 92.625 143.383 92.625 144.008 92.625 144.539 92.5078 144.977 92.2734 145.422 92.0469 145.762 91.7109 145.996 91.2656 146.238 90.8281 146.359 90.2891 146.359 89.6484L146.359 80.2148 146.652 77.3203ZM138.086 83.8125 138.086 83.5664C138.086 82.5977 138.203 81.7188 138.438 80.9297 138.672 80.1328 139.008 79.4492 139.445 78.8789 139.891 78.3086 140.426 77.8672 141.051 77.5547 141.684 77.2422 142.395 77.0859 143.184 77.0859 144.02 77.0859 144.723 77.2383 145.293 77.543 145.871 77.8477 146.348 78.2812 146.723 78.8438 147.105 79.4062 147.402 80.0742 147.613 80.8477 147.832 81.6133 148 82.457 148.117 83.3789L148.117 84.0469C148.008 84.9453 147.832 85.7695 147.59 86.5195 147.355 87.2695 147.043 87.9258 146.652 88.4883 146.262 89.043 145.777 89.4727 145.199 89.7773 144.621 90.082 143.941 90.2344 143.16 90.2344 142.379 90.2344 141.676 90.0742 141.051 89.7539 140.426 89.4336 139.891 88.9844 139.445 88.4062 139.008 87.8281 138.672 87.1484 138.438 86.3672 138.203 85.5859 138.086 84.7344 138.086 83.8125ZM141.18 83.5664 141.18 83.8125C141.18 84.3594 141.234 84.8711 141.344 85.3477 141.453 85.8242 141.621 86.2461 141.848 86.6133 142.074 86.9727 142.359 87.2539 142.703 87.457 143.047 87.6602 143.457 87.7617 143.934 87.7617 144.574 87.7617 145.098 87.6289 145.504 87.3633 145.918 87.0898 146.23 86.7188 146.441 86.25 146.66 85.7734 146.801 85.2383 146.863 84.6445L146.863 82.8047C146.824 82.3359 146.738 81.9023 146.605 81.5039 146.48 81.1055 146.305 80.7617 146.078 80.4727 145.852 80.1836 145.562 79.957 145.211 79.793 144.859 79.6289 144.441 79.5469 143.957 79.5469 143.488 79.5469 143.078 79.6523 142.727 79.8633 142.375 80.0664 142.086 80.3516 141.859 80.7188 141.633 81.0859 141.461 81.5117 141.344 81.9961 141.234 82.4805 141.18 83.0039 141.18 83.5664Z" fill="#1E293B"/><path d="M77.1465 330.152C77.1465 331.018 76.9447 331.754 76.541 332.359 76.1439 332.958 75.6035 333.414 74.9199 333.727 74.2428 334.039 73.4779 334.195 72.625 334.195 71.7721 334.195 71.0039 334.039 70.3203 333.727 69.6367 333.414 69.0964 332.958 68.6992 332.359 68.3021 331.754 68.1035 331.018 68.1035 330.152 68.1035 329.586 68.2109 329.068 68.4258 328.6 68.6471 328.124 68.9564 327.711 69.3535 327.359 69.7572 327.008 70.2324 326.738 70.7793 326.549 71.3327 326.354 71.9414 326.256 72.6055 326.256 73.4779 326.256 74.2559 326.425 74.9395 326.764 75.623 327.096 76.1602 327.555 76.5508 328.141 76.9479 328.727 77.1465 329.397 77.1465 330.152ZM75.3301 330.113C75.3301 329.586 75.2161 329.12 74.9883 328.717 74.7604 328.307 74.4414 327.988 74.0312 327.76 73.6211 327.532 73.1458 327.418 72.6055 327.418 72.0521 327.418 71.5736 327.532 71.1699 327.76 70.7728 327.988 70.4635 328.307 70.2422 328.717 70.0208 329.12 69.9102 329.586 69.9102 330.113 69.9102 330.66 70.0176 331.129 70.2324 331.52 70.4538 331.904 70.7663 332.2 71.1699 332.408 71.5801 332.61 72.0651 332.711 72.625 332.711 73.1849 332.711 73.6667 332.61 74.0703 332.408 74.474 332.2 74.7832 331.904 74.998 331.52 75.2194 331.129 75.3301 330.66 75.3301 330.113ZM76.8145 323.482C76.8145 324.173 76.6322 324.794 76.2676 325.348 75.903 325.901 75.4049 326.337 74.7734 326.656 74.1419 326.975 73.4258 327.135 72.625 327.135 71.8112 327.135 71.0853 326.975 70.4473 326.656 69.8158 326.337 69.321 325.901 68.9629 325.348 68.6048 324.794 68.4258 324.173 68.4258 323.482 68.4258 322.656 68.6048 321.952 68.9629 321.373 69.3275 320.794 69.8255 320.351 70.457 320.045 71.0885 319.739 71.8079 319.586 72.6152 319.586 73.429 319.586 74.1517 319.739 74.7832 320.045 75.4147 320.351 75.9095 320.794 76.2676 321.373 76.6322 321.952 76.8145 322.656 76.8145 323.482ZM75.0078 323.512C75.0078 323.036 74.9069 322.617 74.7051 322.252 74.5033 321.887 74.2233 321.601 73.8652 321.393 73.5072 321.178 73.0905 321.07 72.6152 321.07 72.14 321.07 71.7233 321.171 71.3652 321.373 71.0137 321.568 70.737 321.848 70.5352 322.213 70.3398 322.577 70.2422 323.01 70.2422 323.512 70.2422 324 70.3398 324.426 70.5352 324.791 70.737 325.156 71.0169 325.439 71.375 325.641 71.7331 325.842 72.1497 325.943 72.625 325.943 73.1003 325.943 73.5137 325.842 73.8652 325.641 74.2233 325.439 74.5033 325.156 74.7051 324.791 74.9069 324.426 75.0078 324 75.0078 323.512ZM81.4336 325.465 81.4336 338.062 79.6172 338.062 79.6172 323.434 81.2773 323.434 81.4336 325.465ZM88.5527 328.629 88.5527 328.834C88.5527 329.602 88.4616 330.315 88.2793 330.973 88.097 331.624 87.8301 332.19 87.4785 332.672 87.1335 333.154 86.707 333.528 86.1992 333.795 85.6914 334.062 85.1087 334.195 84.4512 334.195 83.7806 334.195 83.1882 334.085 82.6738 333.863 82.1595 333.642 81.7233 333.32 81.3652 332.896 81.0072 332.473 80.7207 331.965 80.5059 331.373 80.2975 330.781 80.1543 330.113 80.0762 329.371L80.0762 328.277C80.1543 327.496 80.3008 326.796 80.5156 326.178 80.7305 325.559 81.0137 325.032 81.3652 324.596 81.7233 324.153 82.1562 323.818 82.6641 323.59 83.1719 323.355 83.7578 323.238 84.4219 323.238 85.0859 323.238 85.6751 323.368 86.1895 323.629 86.7038 323.883 87.1367 324.247 87.4883 324.723 87.8398 325.198 88.1035 325.768 88.2793 326.432 88.4616 327.089 88.5527 327.822 88.5527 328.629ZM86.7363 328.834 86.7363 328.629C86.7363 328.102 86.681 327.607 86.5703 327.145 86.4596 326.676 86.2871 326.266 86.0527 325.914 85.8249 325.556 85.5319 325.276 85.1738 325.074 84.8158 324.866 84.3893 324.762 83.8945 324.762 83.4388 324.762 83.0417 324.84 82.7031 324.996 82.3711 325.152 82.0879 325.364 81.8535 325.631 81.6191 325.891 81.4271 326.191 81.2773 326.529 81.1341 326.861 81.0267 327.206 80.9551 327.564L80.9551 330.094C81.0853 330.549 81.2676 330.979 81.502 331.383 81.7363 331.78 82.0488 332.102 82.4395 332.35 82.8301 332.59 83.3216 332.711 83.9141 332.711 84.4023 332.711 84.8223 332.61 85.1738 332.408 85.5319 332.2 85.8249 331.917 86.0527 331.559 86.2871 331.201 86.4596 330.79 86.5703 330.328 86.681 329.859 86.7363 329.361 86.7363 328.834ZM91.9219 323.434 94.2363 327.281 96.5801 323.434 98.6992 323.434 95.2422 328.648 98.8066 334 96.7168 334 94.2754 330.035 91.834 334 89.7344 334 93.2891 328.648 89.8418 323.434 91.9219 323.434Z" fill="#94A3B8"/><path d="M228.119 319.703 228.119 334 226.312 334 226.312 321.959 222.67 323.287 222.67 321.656 227.836 319.703 228.119 319.703ZM240.365 319.762 240.521 319.762 240.521 321.295 240.365 321.295C239.408 321.295 238.607 321.451 237.963 321.764 237.318 322.07 236.807 322.483 236.43 323.004 236.052 323.518 235.779 324.098 235.609 324.742 235.447 325.387 235.365 326.041 235.365 326.705L235.365 328.795C235.365 329.426 235.44 329.986 235.59 330.475 235.74 330.956 235.945 331.363 236.205 331.695 236.465 332.027 236.758 332.278 237.084 332.447 237.416 332.617 237.761 332.701 238.119 332.701 238.536 332.701 238.907 332.623 239.232 332.467 239.558 332.304 239.831 332.079 240.053 331.793 240.281 331.5 240.453 331.155 240.57 330.758 240.688 330.361 240.746 329.924 240.746 329.449 240.746 329.026 240.694 328.619 240.59 328.229 240.486 327.831 240.326 327.48 240.111 327.174 239.896 326.861 239.626 326.617 239.301 326.441 238.982 326.259 238.601 326.168 238.158 326.168 237.657 326.168 237.188 326.292 236.752 326.539 236.322 326.78 235.967 327.099 235.688 327.496 235.414 327.887 235.258 328.313 235.219 328.775L234.262 328.766C234.353 328.036 234.522 327.415 234.77 326.9 235.023 326.38 235.336 325.956 235.707 325.631 236.085 325.299 236.505 325.058 236.967 324.908 237.436 324.752 237.93 324.674 238.451 324.674 239.161 324.674 239.773 324.807 240.287 325.074 240.801 325.341 241.225 325.699 241.557 326.148 241.889 326.591 242.133 327.092 242.289 327.652 242.452 328.206 242.533 328.775 242.533 329.361 242.533 330.032 242.439 330.66 242.25 331.246 242.061 331.832 241.778 332.346 241.4 332.789 241.029 333.232 240.57 333.577 240.023 333.824 239.477 334.072 238.842 334.195 238.119 334.195 237.351 334.195 236.68 334.039 236.107 333.727 235.535 333.408 235.059 332.984 234.682 332.457 234.304 331.93 234.021 331.344 233.832 330.699 233.643 330.055 233.549 329.4 233.549 328.736L233.549 327.887C233.549 326.884 233.65 325.901 233.852 324.938 234.053 323.974 234.402 323.102 234.896 322.32 235.398 321.539 236.091 320.917 236.977 320.455 237.862 319.993 238.992 319.762 240.365 319.762ZM246.684 325.465 246.684 338.062 244.867 338.062 244.867 323.434 246.527 323.434 246.684 325.465ZM253.803 328.629 253.803 328.834C253.803 329.602 253.712 330.315 253.529 330.973 253.347 331.624 253.08 332.19 252.729 332.672 252.383 333.154 251.957 333.528 251.449 333.795 250.941 334.062 250.359 334.195 249.701 334.195 249.031 334.195 248.438 334.085 247.924 333.863 247.41 333.642 246.973 333.32 246.615 332.896 246.257 332.473 245.971 331.965 245.756 331.373 245.548 330.781 245.404 330.113 245.326 329.371L245.326 328.277C245.404 327.496 245.551 326.796 245.766 326.178 245.98 325.559 246.264 325.032 246.615 324.596 246.973 324.153 247.406 323.818 247.914 323.59 248.422 323.355 249.008 323.238 249.672 323.238 250.336 323.238 250.925 323.368 251.439 323.629 251.954 323.883 252.387 324.247 252.738 324.723 253.09 325.198 253.354 325.768 253.529 326.432 253.712 327.089 253.803 327.822 253.803 328.629ZM251.986 328.834 251.986 328.629C251.986 328.102 251.931 327.607 251.82 327.145 251.71 326.676 251.537 326.266 251.303 325.914 251.075 325.556 250.782 325.276 250.424 325.074 250.066 324.866 249.639 324.762 249.145 324.762 248.689 324.762 248.292 324.84 247.953 324.996 247.621 325.152 247.338 325.364 247.104 325.631 246.869 325.891 246.677 326.191 246.527 326.529 246.384 326.861 246.277 327.206 246.205 327.564L246.205 330.094C246.335 330.549 246.518 330.979 246.752 331.383 246.986 331.78 247.299 332.102 247.689 332.35 248.08 332.59 248.572 332.711 249.164 332.711 249.652 332.711 250.072 332.61 250.424 332.408 250.782 332.2 251.075 331.917 251.303 331.559 251.537 331.201 251.71 330.79 251.82 330.328 251.931 329.859 251.986 329.361 251.986 328.834ZM257.172 323.434 259.486 327.281 261.83 323.434 263.949 323.434 260.492 328.648 264.057 334 261.967 334 259.525 330.035 257.084 334 254.984 334 258.539 328.648 255.092 323.434 257.172 323.434Z" fill="#94A3B8"/><path d="M377.498 332.516 377.498 334 368.191 334 368.191 332.701 372.85 327.516C373.423 326.878 373.865 326.337 374.178 325.895 374.497 325.445 374.718 325.045 374.842 324.693 374.972 324.335 375.037 323.971 375.037 323.6 375.037 323.131 374.939 322.708 374.744 322.33 374.555 321.946 374.275 321.64 373.904 321.412 373.533 321.184 373.084 321.07 372.557 321.07 371.925 321.07 371.398 321.194 370.975 321.441 370.558 321.682 370.245 322.021 370.037 322.457 369.829 322.893 369.725 323.395 369.725 323.961L367.918 323.961C367.918 323.16 368.094 322.428 368.445 321.764 368.797 321.1 369.318 320.572 370.008 320.182 370.698 319.785 371.548 319.586 372.557 319.586 373.455 319.586 374.223 319.745 374.861 320.064 375.499 320.377 375.988 320.82 376.326 321.393 376.671 321.959 376.844 322.623 376.844 323.385 376.844 323.801 376.772 324.225 376.629 324.654 376.492 325.077 376.3 325.501 376.053 325.924 375.812 326.347 375.529 326.764 375.203 327.174 374.884 327.584 374.542 327.988 374.178 328.385L370.369 332.516 377.498 332.516ZM389.041 329.215 389.041 330.699 378.768 330.699 378.768 329.635 385.135 319.781 386.609 319.781 385.027 322.633 380.818 329.215 389.041 329.215ZM387.059 319.781 387.059 334 385.252 334 385.252 319.781 387.059 319.781ZM392.684 325.465 392.684 338.062 390.867 338.062 390.867 323.434 392.527 323.434 392.684 325.465ZM399.803 328.629 399.803 328.834C399.803 329.602 399.712 330.315 399.529 330.973 399.347 331.624 399.08 332.19 398.729 332.672 398.383 333.154 397.957 333.528 397.449 333.795 396.941 334.062 396.359 334.195 395.701 334.195 395.031 334.195 394.438 334.085 393.924 333.863 393.41 333.642 392.973 333.32 392.615 332.896 392.257 332.473 391.971 331.965 391.756 331.373 391.548 330.781 391.404 330.113 391.326 329.371L391.326 328.277C391.404 327.496 391.551 326.796 391.766 326.178 391.98 325.559 392.264 325.032 392.615 324.596 392.973 324.153 393.406 323.818 393.914 323.59 394.422 323.355 395.008 323.238 395.672 323.238 396.336 323.238 396.925 323.368 397.439 323.629 397.954 323.883 398.387 324.247 398.738 324.723 399.09 325.198 399.354 325.768 399.529 326.432 399.712 327.089 399.803 327.822 399.803 328.629ZM397.986 328.834 397.986 328.629C397.986 328.102 397.931 327.607 397.82 327.145 397.71 326.676 397.537 326.266 397.303 325.914 397.075 325.556 396.782 325.276 396.424 325.074 396.066 324.866 395.639 324.762 395.145 324.762 394.689 324.762 394.292 324.84 393.953 324.996 393.621 325.152 393.338 325.364 393.104 325.631 392.869 325.891 392.677 326.191 392.527 326.529 392.384 326.861 392.277 327.206 392.205 327.564L392.205 330.094C392.335 330.549 392.518 330.979 392.752 331.383 392.986 331.78 393.299 332.102 393.689 332.35 394.08 332.59 394.572 332.711 395.164 332.711 395.652 332.711 396.072 332.61 396.424 332.408 396.782 332.2 397.075 331.917 397.303 331.559 397.537 331.201 397.71 330.79 397.82 330.328 397.931 329.859 397.986 329.361 397.986 328.834ZM403.172 323.434 405.486 327.281 407.83 323.434 409.949 323.434 406.492 328.648 410.057 334 407.967 334 405.525 330.035 403.084 334 400.984 334 404.539 328.648 401.092 323.434 403.172 323.434Z" fill="#94A3B8"/><path d="M378.371 578.781 378.371 579.797 372.482 593 370.578 593 376.457 580.266 368.762 580.266 368.762 578.781 378.371 578.781ZM389.748 591.516 389.748 593 380.441 593 380.441 591.701 385.1 586.516C385.673 585.878 386.115 585.337 386.428 584.895 386.747 584.445 386.968 584.045 387.092 583.693 387.222 583.335 387.287 582.971 387.287 582.6 387.287 582.131 387.189 581.708 386.994 581.33 386.805 580.946 386.525 580.64 386.154 580.412 385.783 580.184 385.334 580.07 384.807 580.07 384.175 580.07 383.648 580.194 383.225 580.441 382.808 580.682 382.495 581.021 382.287 581.457 382.079 581.893 381.975 582.395 381.975 582.961L380.168 582.961C380.168 582.16 380.344 581.428 380.695 580.764 381.047 580.1 381.568 579.572 382.258 579.182 382.948 578.785 383.798 578.586 384.807 578.586 385.705 578.586 386.473 578.745 387.111 579.064 387.749 579.377 388.238 579.82 388.576 580.393 388.921 580.959 389.094 581.623 389.094 582.385 389.094 582.801 389.022 583.225 388.879 583.654 388.742 584.077 388.55 584.501 388.303 584.924 388.062 585.347 387.779 585.764 387.453 586.174 387.134 586.584 386.792 586.988 386.428 587.385L382.619 591.516 389.748 591.516ZM393.684 584.465 393.684 597.062 391.867 597.062 391.867 582.434 393.527 582.434 393.684 584.465ZM400.803 587.629 400.803 587.834C400.803 588.602 400.712 589.315 400.529 589.973 400.347 590.624 400.08 591.19 399.729 591.672 399.383 592.154 398.957 592.528 398.449 592.795 397.941 593.062 397.359 593.195 396.701 593.195 396.031 593.195 395.438 593.085 394.924 592.863 394.41 592.642 393.973 592.32 393.615 591.896 393.257 591.473 392.971 590.965 392.756 590.373 392.548 589.781 392.404 589.113 392.326 588.371L392.326 587.277C392.404 586.496 392.551 585.796 392.766 585.178 392.98 584.559 393.264 584.032 393.615 583.596 393.973 583.153 394.406 582.818 394.914 582.59 395.422 582.355 396.008 582.238 396.672 582.238 397.336 582.238 397.925 582.368 398.439 582.629 398.954 582.883 399.387 583.247 399.738 583.723 400.09 584.198 400.354 584.768 400.529 585.432 400.712 586.089 400.803 586.822 400.803 587.629ZM398.986 587.834 398.986 587.629C398.986 587.102 398.931 586.607 398.82 586.145 398.71 585.676 398.537 585.266 398.303 584.914 398.075 584.556 397.782 584.276 397.424 584.074 397.066 583.866 396.639 583.762 396.145 583.762 395.689 583.762 395.292 583.84 394.953 583.996 394.621 584.152 394.338 584.364 394.104 584.631 393.869 584.891 393.677 585.191 393.527 585.529 393.384 585.861 393.277 586.206 393.205 586.564L393.205 589.094C393.335 589.549 393.518 589.979 393.752 590.383 393.986 590.78 394.299 591.102 394.689 591.35 395.08 591.59 395.572 591.711 396.164 591.711 396.652 591.711 397.072 591.61 397.424 591.408 397.782 591.2 398.075 590.917 398.303 590.559 398.537 590.201 398.71 589.79 398.82 589.328 398.931 588.859 398.986 588.361 398.986 587.834ZM404.172 582.434 406.486 586.281 408.83 582.434 410.949 582.434 407.492 587.648 411.057 593 408.967 593 406.525 589.035 404.084 593 401.984 593 405.539 587.648 402.092 582.434 404.172 582.434Z" fill="#94A3B8"/><path d="M523.146 589.152C523.146 590.018 522.945 590.754 522.541 591.359 522.144 591.958 521.604 592.414 520.92 592.727 520.243 593.039 519.478 593.195 518.625 593.195 517.772 593.195 517.004 593.039 516.32 592.727 515.637 592.414 515.096 591.958 514.699 591.359 514.302 590.754 514.104 590.018 514.104 589.152 514.104 588.586 514.211 588.068 514.426 587.6 514.647 587.124 514.956 586.711 515.354 586.359 515.757 586.008 516.232 585.738 516.779 585.549 517.333 585.354 517.941 585.256 518.605 585.256 519.478 585.256 520.256 585.425 520.939 585.764 521.623 586.096 522.16 586.555 522.551 587.141 522.948 587.727 523.146 588.397 523.146 589.152ZM521.33 589.113C521.33 588.586 521.216 588.12 520.988 587.717 520.76 587.307 520.441 586.988 520.031 586.76 519.621 586.532 519.146 586.418 518.605 586.418 518.052 586.418 517.574 586.532 517.17 586.76 516.773 586.988 516.464 587.307 516.242 587.717 516.021 588.12 515.91 588.586 515.91 589.113 515.91 589.66 516.018 590.129 516.232 590.52 516.454 590.904 516.766 591.2 517.17 591.408 517.58 591.61 518.065 591.711 518.625 591.711 519.185 591.711 519.667 591.61 520.07 591.408 520.474 591.2 520.783 590.904 520.998 590.52 521.219 590.129 521.33 589.66 521.33 589.113ZM522.814 582.482C522.814 583.173 522.632 583.794 522.268 584.348 521.903 584.901 521.405 585.337 520.773 585.656 520.142 585.975 519.426 586.135 518.625 586.135 517.811 586.135 517.085 585.975 516.447 585.656 515.816 585.337 515.321 584.901 514.963 584.348 514.605 583.794 514.426 583.173 514.426 582.482 514.426 581.656 514.605 580.952 514.963 580.373 515.327 579.794 515.826 579.351 516.457 579.045 517.089 578.739 517.808 578.586 518.615 578.586 519.429 578.586 520.152 578.739 520.783 579.045 521.415 579.351 521.91 579.794 522.268 580.373 522.632 580.952 522.814 581.656 522.814 582.482ZM521.008 582.512C521.008 582.036 520.907 581.617 520.705 581.252 520.503 580.887 520.223 580.601 519.865 580.393 519.507 580.178 519.09 580.07 518.615 580.07 518.14 580.07 517.723 580.171 517.365 580.373 517.014 580.568 516.737 580.848 516.535 581.213 516.34 581.577 516.242 582.01 516.242 582.512 516.242 583 516.34 583.426 516.535 583.791 516.737 584.156 517.017 584.439 517.375 584.641 517.733 584.842 518.15 584.943 518.625 584.943 519.1 584.943 519.514 584.842 519.865 584.641 520.223 584.439 520.503 584.156 520.705 583.791 520.907 583.426 521.008 583 521.008 582.512ZM534.357 584.758 534.357 586.926C534.357 588.091 534.253 589.074 534.045 589.875 533.837 590.676 533.537 591.32 533.146 591.809 532.756 592.297 532.284 592.652 531.73 592.873 531.184 593.088 530.565 593.195 529.875 593.195 529.328 593.195 528.824 593.127 528.361 592.99 527.899 592.854 527.482 592.635 527.111 592.336 526.747 592.03 526.434 591.633 526.174 591.145 525.913 590.656 525.715 590.064 525.578 589.367 525.441 588.671 525.373 587.857 525.373 586.926L525.373 584.758C525.373 583.592 525.477 582.616 525.686 581.828 525.9 581.04 526.203 580.409 526.594 579.934 526.984 579.452 527.453 579.107 528 578.898 528.553 578.69 529.172 578.586 529.855 578.586 530.409 578.586 530.917 578.654 531.379 578.791 531.848 578.921 532.264 579.133 532.629 579.426 532.993 579.712 533.303 580.096 533.557 580.578 533.817 581.053 534.016 581.636 534.152 582.326 534.289 583.016 534.357 583.827 534.357 584.758ZM532.541 587.219 532.541 584.455C532.541 583.817 532.502 583.257 532.424 582.775 532.352 582.287 532.245 581.87 532.102 581.525 531.958 581.18 531.776 580.9 531.555 580.686 531.34 580.471 531.089 580.314 530.803 580.217 530.523 580.113 530.207 580.061 529.855 580.061 529.426 580.061 529.045 580.142 528.713 580.305 528.381 580.461 528.101 580.712 527.873 581.057 527.652 581.402 527.482 581.854 527.365 582.414 527.248 582.974 527.189 583.654 527.189 584.455L527.189 587.219C527.189 587.857 527.225 588.42 527.297 588.908 527.375 589.396 527.489 589.82 527.639 590.178 527.788 590.529 527.971 590.819 528.186 591.047 528.4 591.275 528.648 591.444 528.928 591.555 529.214 591.659 529.53 591.711 529.875 591.711 530.318 591.711 530.705 591.626 531.037 591.457 531.369 591.288 531.646 591.024 531.867 590.666 532.095 590.301 532.264 589.836 532.375 589.27 532.486 588.697 532.541 588.013 532.541 587.219ZM538.684 584.465 538.684 597.062 536.867 597.062 536.867 582.434 538.527 582.434 538.684 584.465ZM545.803 587.629 545.803 587.834C545.803 588.602 545.712 589.315 545.529 589.973 545.347 590.624 545.08 591.19 544.729 591.672 544.383 592.154 543.957 592.528 543.449 592.795 542.941 593.062 542.359 593.195 541.701 593.195 541.031 593.195 540.438 593.085 539.924 592.863 539.41 592.642 538.973 592.32 538.615 591.896 538.257 591.473 537.971 590.965 537.756 590.373 537.548 589.781 537.404 589.113 537.326 588.371L537.326 587.277C537.404 586.496 537.551 585.796 537.766 585.178 537.98 584.559 538.264 584.032 538.615 583.596 538.973 583.153 539.406 582.818 539.914 582.59 540.422 582.355 541.008 582.238 541.672 582.238 542.336 582.238 542.925 582.368 543.439 582.629 543.954 582.883 544.387 583.247 544.738 583.723 545.09 584.198 545.354 584.768 545.529 585.432 545.712 586.089 545.803 586.822 545.803 587.629ZM543.986 587.834 543.986 587.629C543.986 587.102 543.931 586.607 543.82 586.145 543.71 585.676 543.537 585.266 543.303 584.914 543.075 584.556 542.782 584.276 542.424 584.074 542.066 583.866 541.639 583.762 541.145 583.762 540.689 583.762 540.292 583.84 539.953 583.996 539.621 584.152 539.338 584.364 539.104 584.631 538.869 584.891 538.677 585.191 538.527 585.529 538.384 585.861 538.277 586.206 538.205 586.564L538.205 589.094C538.335 589.549 538.518 589.979 538.752 590.383 538.986 590.78 539.299 591.102 539.689 591.35 540.08 591.59 540.572 591.711 541.164 591.711 541.652 591.711 542.072 591.61 542.424 591.408 542.782 591.2 543.075 590.917 543.303 590.559 543.537 590.201 543.71 589.79 543.82 589.328 543.931 588.859 543.986 588.361 543.986 587.834ZM549.172 582.434 551.486 586.281 553.83 582.434 555.949 582.434 552.492 587.648 556.057 593 553.967 593 551.525 589.035 549.084 593 546.984 593 550.539 587.648 547.092 582.434 549.172 582.434Z" fill="#94A3B8"/><path d="M74.1191 861.703 74.1191 876 72.3125 876 72.3125 863.959 68.6699 865.287 68.6699 863.656 73.8359 861.703 74.1191 861.703ZM88.3574 867.758 88.3574 869.926C88.3574 871.091 88.2533 872.074 88.0449 872.875 87.8366 873.676 87.5371 874.32 87.1465 874.809 86.7559 875.297 86.2839 875.652 85.7305 875.873 85.1836 876.088 84.5651 876.195 83.875 876.195 83.3281 876.195 82.8236 876.127 82.3613 875.99 81.8991 875.854 81.4824 875.635 81.1113 875.336 80.7467 875.03 80.4342 874.633 80.1738 874.145 79.9134 873.656 79.7148 873.064 79.5781 872.367 79.4414 871.671 79.373 870.857 79.373 869.926L79.373 867.758C79.373 866.592 79.4772 865.616 79.6855 864.828 79.9004 864.04 80.2031 863.409 80.5938 862.934 80.9844 862.452 81.4531 862.107 82 861.898 82.5534 861.69 83.1719 861.586 83.8555 861.586 84.4089 861.586 84.9167 861.654 85.3789 861.791 85.8477 861.921 86.2643 862.133 86.6289 862.426 86.9935 862.712 87.3027 863.096 87.5566 863.578 87.8171 864.053 88.0156 864.636 88.1523 865.326 88.2891 866.016 88.3574 866.827 88.3574 867.758ZM86.541 870.219 86.541 867.455C86.541 866.817 86.502 866.257 86.4238 865.775 86.3522 865.287 86.2448 864.87 86.1016 864.525 85.9583 864.18 85.776 863.9 85.5547 863.686 85.3398 863.471 85.0892 863.314 84.8027 863.217 84.5228 863.113 84.207 863.061 83.8555 863.061 83.4258 863.061 83.0449 863.142 82.7129 863.305 82.3809 863.461 82.1009 863.712 81.873 864.057 81.6517 864.402 81.4824 864.854 81.3652 865.414 81.248 865.974 81.1895 866.654 81.1895 867.455L81.1895 870.219C81.1895 870.857 81.2253 871.42 81.2969 871.908 81.375 872.396 81.4889 872.82 81.6387 873.178 81.7884 873.529 81.9707 873.819 82.1855 874.047 82.4004 874.275 82.6478 874.444 82.9277 874.555 83.2142 874.659 83.5299 874.711 83.875 874.711 84.3177 874.711 84.7051 874.626 85.0371 874.457 85.3691 874.288 85.6458 874.024 85.8672 873.666 86.0951 873.301 86.2643 872.836 86.375 872.27 86.4857 871.697 86.541 871.013 86.541 870.219ZM100.291 871.215 100.291 872.699 90.0176 872.699 90.0176 871.635 96.3848 861.781 97.8594 861.781 96.2773 864.633 92.0684 871.215 100.291 871.215ZM98.3086 861.781 98.3086 876 96.502 876 96.502 861.781 98.3086 861.781ZM103.934 867.465 103.934 880.062 102.117 880.062 102.117 865.434 103.777 865.434 103.934 867.465ZM111.053 870.629 111.053 870.834C111.053 871.602 110.962 872.315 110.779 872.973 110.597 873.624 110.33 874.19 109.979 874.672 109.633 875.154 109.207 875.528 108.699 875.795 108.191 876.062 107.609 876.195 106.951 876.195 106.281 876.195 105.688 876.085 105.174 875.863 104.66 875.642 104.223 875.32 103.865 874.896 103.507 874.473 103.221 873.965 103.006 873.373 102.798 872.781 102.654 872.113 102.576 871.371L102.576 870.277C102.654 869.496 102.801 868.796 103.016 868.178 103.23 867.559 103.514 867.032 103.865 866.596 104.223 866.153 104.656 865.818 105.164 865.59 105.672 865.355 106.258 865.238 106.922 865.238 107.586 865.238 108.175 865.368 108.689 865.629 109.204 865.883 109.637 866.247 109.988 866.723 110.34 867.198 110.604 867.768 110.779 868.432 110.962 869.089 111.053 869.822 111.053 870.629ZM109.236 870.834 109.236 870.629C109.236 870.102 109.181 869.607 109.07 869.145 108.96 868.676 108.787 868.266 108.553 867.914 108.325 867.556 108.032 867.276 107.674 867.074 107.316 866.866 106.889 866.762 106.395 866.762 105.939 866.762 105.542 866.84 105.203 866.996 104.871 867.152 104.588 867.364 104.354 867.631 104.119 867.891 103.927 868.191 103.777 868.529 103.634 868.861 103.527 869.206 103.455 869.564L103.455 872.094C103.585 872.549 103.768 872.979 104.002 873.383 104.236 873.78 104.549 874.102 104.939 874.35 105.33 874.59 105.822 874.711 106.414 874.711 106.902 874.711 107.322 874.61 107.674 874.408 108.032 874.2 108.325 873.917 108.553 873.559 108.787 873.201 108.96 872.79 109.07 872.328 109.181 871.859 109.236 871.361 109.236 870.834ZM114.422 865.434 116.736 869.281 119.08 865.434 121.199 865.434 117.742 870.648 121.307 876 119.217 876 116.775 872.035 114.334 876 112.234 876 115.789 870.648 112.342 865.434 114.422 865.434Z" fill="#94A3B8"/><path d="M515.818 326.002 517.107 326.002C517.739 326.002 518.26 325.898 518.67 325.689 519.087 325.475 519.396 325.185 519.598 324.82 519.806 324.449 519.91 324.033 519.91 323.57 519.91 323.023 519.819 322.564 519.637 322.193 519.454 321.822 519.181 321.542 518.816 321.354 518.452 321.165 517.99 321.07 517.43 321.07 516.922 321.07 516.473 321.171 516.082 321.373 515.698 321.568 515.395 321.848 515.174 322.213 514.959 322.577 514.852 323.007 514.852 323.502L513.045 323.502C513.045 322.779 513.227 322.122 513.592 321.529 513.956 320.937 514.467 320.465 515.125 320.113 515.789 319.762 516.557 319.586 517.43 319.586 518.289 319.586 519.041 319.739 519.686 320.045 520.33 320.344 520.831 320.794 521.189 321.393 521.548 321.985 521.727 322.724 521.727 323.609 521.727 323.967 521.642 324.352 521.473 324.762 521.31 325.165 521.053 325.543 520.701 325.895 520.356 326.246 519.907 326.536 519.354 326.764 518.8 326.985 518.136 327.096 517.361 327.096L515.818 327.096 515.818 326.002ZM515.818 327.486 515.818 326.402 517.361 326.402C518.266 326.402 519.015 326.51 519.607 326.725 520.2 326.939 520.665 327.226 521.004 327.584 521.349 327.942 521.59 328.336 521.727 328.766 521.87 329.189 521.941 329.612 521.941 330.035 521.941 330.699 521.827 331.288 521.6 331.803 521.378 332.317 521.062 332.753 520.652 333.111 520.249 333.469 519.773 333.74 519.227 333.922 518.68 334.104 518.084 334.195 517.439 334.195 516.821 334.195 516.238 334.107 515.691 333.932 515.151 333.756 514.673 333.502 514.256 333.17 513.839 332.831 513.514 332.418 513.279 331.93 513.045 331.435 512.928 330.872 512.928 330.24L514.734 330.24C514.734 330.735 514.842 331.168 515.057 331.539 515.278 331.91 515.59 332.2 515.994 332.408 516.404 332.61 516.886 332.711 517.439 332.711 517.993 332.711 518.468 332.617 518.865 332.428 519.269 332.232 519.578 331.939 519.793 331.549 520.014 331.158 520.125 330.667 520.125 330.074 520.125 329.482 520.001 328.997 519.754 328.619 519.507 328.235 519.155 327.952 518.699 327.77 518.25 327.581 517.719 327.486 517.107 327.486L515.818 327.486ZM533.748 332.516 533.748 334 524.441 334 524.441 332.701 529.1 327.516C529.673 326.878 530.115 326.337 530.428 325.895 530.747 325.445 530.968 325.045 531.092 324.693 531.222 324.335 531.287 323.971 531.287 323.6 531.287 323.131 531.189 322.708 530.994 322.33 530.805 321.946 530.525 321.64 530.154 321.412 529.783 321.184 529.334 321.07 528.807 321.07 528.175 321.07 527.648 321.194 527.225 321.441 526.808 321.682 526.495 322.021 526.287 322.457 526.079 322.893 525.975 323.395 525.975 323.961L524.168 323.961C524.168 323.16 524.344 322.428 524.695 321.764 525.047 321.1 525.568 320.572 526.258 320.182 526.948 319.785 527.798 319.586 528.807 319.586 529.705 319.586 530.473 319.745 531.111 320.064 531.749 320.377 532.238 320.82 532.576 321.393 532.921 321.959 533.094 322.623 533.094 323.385 533.094 323.801 533.022 324.225 532.879 324.654 532.742 325.077 532.55 325.501 532.303 325.924 532.062 326.347 531.779 326.764 531.453 327.174 531.134 327.584 530.792 327.988 530.428 328.385L526.619 332.516 533.748 332.516ZM537.684 325.465 537.684 338.062 535.867 338.062 535.867 323.434 537.527 323.434 537.684 325.465ZM544.803 328.629 544.803 328.834C544.803 329.602 544.712 330.315 544.529 330.973 544.347 331.624 544.08 332.19 543.729 332.672 543.383 333.154 542.957 333.528 542.449 333.795 541.941 334.062 541.359 334.195 540.701 334.195 540.031 334.195 539.438 334.085 538.924 333.863 538.41 333.642 537.973 333.32 537.615 332.896 537.257 332.473 536.971 331.965 536.756 331.373 536.548 330.781 536.404 330.113 536.326 329.371L536.326 328.277C536.404 327.496 536.551 326.796 536.766 326.178 536.98 325.559 537.264 325.032 537.615 324.596 537.973 324.153 538.406 323.818 538.914 323.59 539.422 323.355 540.008 323.238 540.672 323.238 541.336 323.238 541.925 323.368 542.439 323.629 542.954 323.883 543.387 324.247 543.738 324.723 544.09 325.198 544.354 325.768 544.529 326.432 544.712 327.089 544.803 327.822 544.803 328.629ZM542.986 328.834 542.986 328.629C542.986 328.102 542.931 327.607 542.82 327.145 542.71 326.676 542.537 326.266 542.303 325.914 542.075 325.556 541.782 325.276 541.424 325.074 541.066 324.866 540.639 324.762 540.145 324.762 539.689 324.762 539.292 324.84 538.953 324.996 538.621 325.152 538.338 325.364 538.104 325.631 537.869 325.891 537.677 326.191 537.527 326.529 537.384 326.861 537.277 327.206 537.205 327.564L537.205 330.094C537.335 330.549 537.518 330.979 537.752 331.383 537.986 331.78 538.299 332.102 538.689 332.35 539.08 332.59 539.572 332.711 540.164 332.711 540.652 332.711 541.072 332.61 541.424 332.408 541.782 332.2 542.075 331.917 542.303 331.559 542.537 331.201 542.71 330.79 542.82 330.328 542.931 329.859 542.986 329.361 542.986 328.834ZM548.172 323.434 550.486 327.281 552.83 323.434 554.949 323.434 551.492 328.648 555.057 334 552.967 334 550.525 330.035 548.084 334 545.984 334 549.539 328.648 546.092 323.434 548.172 323.434Z" fill="#94A3B8"/><path d="M670.791 329.215 670.791 330.699 660.518 330.699 660.518 329.635 666.885 319.781 668.359 319.781 666.777 322.633 662.568 329.215 670.791 329.215ZM668.809 319.781 668.809 334 667.002 334 667.002 319.781 668.809 319.781ZM681.357 325.758 681.357 327.926C681.357 329.091 681.253 330.074 681.045 330.875 680.837 331.676 680.537 332.32 680.146 332.809 679.756 333.297 679.284 333.652 678.73 333.873 678.184 334.088 677.565 334.195 676.875 334.195 676.328 334.195 675.824 334.127 675.361 333.99 674.899 333.854 674.482 333.635 674.111 333.336 673.747 333.03 673.434 332.633 673.174 332.145 672.913 331.656 672.715 331.064 672.578 330.367 672.441 329.671 672.373 328.857 672.373 327.926L672.373 325.758C672.373 324.592 672.477 323.616 672.686 322.828 672.9 322.04 673.203 321.409 673.594 320.934 673.984 320.452 674.453 320.107 675 319.898 675.553 319.69 676.172 319.586 676.855 319.586 677.409 319.586 677.917 319.654 678.379 319.791 678.848 319.921 679.264 320.133 679.629 320.426 679.993 320.712 680.303 321.096 680.557 321.578 680.817 322.053 681.016 322.636 681.152 323.326 681.289 324.016 681.357 324.827 681.357 325.758ZM679.541 328.219 679.541 325.455C679.541 324.817 679.502 324.257 679.424 323.775 679.352 323.287 679.245 322.87 679.102 322.525 678.958 322.18 678.776 321.9 678.555 321.686 678.34 321.471 678.089 321.314 677.803 321.217 677.523 321.113 677.207 321.061 676.855 321.061 676.426 321.061 676.045 321.142 675.713 321.305 675.381 321.461 675.101 321.712 674.873 322.057 674.652 322.402 674.482 322.854 674.365 323.414 674.248 323.974 674.189 324.654 674.189 325.455L674.189 328.219C674.189 328.857 674.225 329.42 674.297 329.908 674.375 330.396 674.489 330.82 674.639 331.178 674.788 331.529 674.971 331.819 675.186 332.047 675.4 332.275 675.648 332.444 675.928 332.555 676.214 332.659 676.53 332.711 676.875 332.711 677.318 332.711 677.705 332.626 678.037 332.457 678.369 332.288 678.646 332.024 678.867 331.666 679.095 331.301 679.264 330.836 679.375 330.27 679.486 329.697 679.541 329.013 679.541 328.219ZM685.684 325.465 685.684 338.062 683.867 338.062 683.867 323.434 685.527 323.434 685.684 325.465ZM692.803 328.629 692.803 328.834C692.803 329.602 692.712 330.315 692.529 330.973 692.347 331.624 692.08 332.19 691.729 332.672 691.383 333.154 690.957 333.528 690.449 333.795 689.941 334.062 689.359 334.195 688.701 334.195 688.031 334.195 687.438 334.085 686.924 333.863 686.41 333.642 685.973 333.32 685.615 332.896 685.257 332.473 684.971 331.965 684.756 331.373 684.548 330.781 684.404 330.113 684.326 329.371L684.326 328.277C684.404 327.496 684.551 326.796 684.766 326.178 684.98 325.559 685.264 325.032 685.615 324.596 685.973 324.153 686.406 323.818 686.914 323.59 687.422 323.355 688.008 323.238 688.672 323.238 689.336 323.238 689.925 323.368 690.439 323.629 690.954 323.883 691.387 324.247 691.738 324.723 692.09 325.198 692.354 325.768 692.529 326.432 692.712 327.089 692.803 327.822 692.803 328.629ZM690.986 328.834 690.986 328.629C690.986 328.102 690.931 327.607 690.82 327.145 690.71 326.676 690.537 326.266 690.303 325.914 690.075 325.556 689.782 325.276 689.424 325.074 689.066 324.866 688.639 324.762 688.145 324.762 687.689 324.762 687.292 324.84 686.953 324.996 686.621 325.152 686.338 325.364 686.104 325.631 685.869 325.891 685.677 326.191 685.527 326.529 685.384 326.861 685.277 327.206 685.205 327.564L685.205 330.094C685.335 330.549 685.518 330.979 685.752 331.383 685.986 331.78 686.299 332.102 686.689 332.35 687.08 332.59 687.572 332.711 688.164 332.711 688.652 332.711 689.072 332.61 689.424 332.408 689.782 332.2 690.075 331.917 690.303 331.559 690.537 331.201 690.71 330.79 690.82 330.328 690.931 329.859 690.986 329.361 690.986 328.834ZM696.172 323.434 698.486 327.281 700.83 323.434 702.949 323.434 699.492 328.648 703.057 334 700.967 334 698.525 330.035 696.084 334 693.984 334 697.539 328.648 694.092 323.434 696.172 323.434Z" fill="#94A3B8"/><path d="M816.791 329.215 816.791 330.699 806.518 330.699 806.518 329.635 812.885 319.781 814.359 319.781 812.777 322.633 808.568 329.215 816.791 329.215ZM814.809 319.781 814.809 334 813.002 334 813.002 319.781 814.809 319.781ZM827.396 330.152C827.396 331.018 827.195 331.754 826.791 332.359 826.394 332.958 825.854 333.414 825.17 333.727 824.493 334.039 823.728 334.195 822.875 334.195 822.022 334.195 821.254 334.039 820.57 333.727 819.887 333.414 819.346 332.958 818.949 332.359 818.552 331.754 818.354 331.018 818.354 330.152 818.354 329.586 818.461 329.068 818.676 328.6 818.897 328.124 819.206 327.711 819.604 327.359 820.007 327.008 820.482 326.738 821.029 326.549 821.583 326.354 822.191 326.256 822.855 326.256 823.728 326.256 824.506 326.425 825.189 326.764 825.873 327.096 826.41 327.555 826.801 328.141 827.198 328.727 827.396 329.397 827.396 330.152ZM825.58 330.113C825.58 329.586 825.466 329.12 825.238 328.717 825.01 328.307 824.691 327.988 824.281 327.76 823.871 327.532 823.396 327.418 822.855 327.418 822.302 327.418 821.824 327.532 821.42 327.76 821.023 327.988 820.714 328.307 820.492 328.717 820.271 329.12 820.16 329.586 820.16 330.113 820.16 330.66 820.268 331.129 820.482 331.52 820.704 331.904 821.016 332.2 821.42 332.408 821.83 332.61 822.315 332.711 822.875 332.711 823.435 332.711 823.917 332.61 824.32 332.408 824.724 332.2 825.033 331.904 825.248 331.52 825.469 331.129 825.58 330.66 825.58 330.113ZM827.064 323.482C827.064 324.173 826.882 324.794 826.518 325.348 826.153 325.901 825.655 326.337 825.023 326.656 824.392 326.975 823.676 327.135 822.875 327.135 822.061 327.135 821.335 326.975 820.697 326.656 820.066 326.337 819.571 325.901 819.213 325.348 818.855 324.794 818.676 324.173 818.676 323.482 818.676 322.656 818.855 321.952 819.213 321.373 819.577 320.794 820.076 320.351 820.707 320.045 821.339 319.739 822.058 319.586 822.865 319.586 823.679 319.586 824.402 319.739 825.033 320.045 825.665 320.351 826.16 320.794 826.518 321.373 826.882 321.952 827.064 322.656 827.064 323.482ZM825.258 323.512C825.258 323.036 825.157 322.617 824.955 322.252 824.753 321.887 824.473 321.601 824.115 321.393 823.757 321.178 823.34 321.07 822.865 321.07 822.39 321.07 821.973 321.171 821.615 321.373 821.264 321.568 820.987 321.848 820.785 322.213 820.59 322.577 820.492 323.01 820.492 323.512 820.492 324 820.59 324.426 820.785 324.791 820.987 325.156 821.267 325.439 821.625 325.641 821.983 325.842 822.4 325.943 822.875 325.943 823.35 325.943 823.764 325.842 824.115 325.641 824.473 325.439 824.753 325.156 824.955 324.791 825.157 324.426 825.258 324 825.258 323.512ZM831.684 325.465 831.684 338.062 829.867 338.062 829.867 323.434 831.527 323.434 831.684 325.465ZM838.803 328.629 838.803 328.834C838.803 329.602 838.712 330.315 838.529 330.973 838.347 331.624 838.08 332.19 837.729 332.672 837.383 333.154 836.957 333.528 836.449 333.795 835.941 334.062 835.359 334.195 834.701 334.195 834.031 334.195 833.438 334.085 832.924 333.863 832.41 333.642 831.973 333.32 831.615 332.896 831.257 332.473 830.971 331.965 830.756 331.373 830.548 330.781 830.404 330.113 830.326 329.371L830.326 328.277C830.404 327.496 830.551 326.796 830.766 326.178 830.98 325.559 831.264 325.032 831.615 324.596 831.973 324.153 832.406 323.818 832.914 323.59 833.422 323.355 834.008 323.238 834.672 323.238 835.336 323.238 835.925 323.368 836.439 323.629 836.954 323.883 837.387 324.247 837.738 324.723 838.09 325.198 838.354 325.768 838.529 326.432 838.712 327.089 838.803 327.822 838.803 328.629ZM836.986 328.834 836.986 328.629C836.986 328.102 836.931 327.607 836.82 327.145 836.71 326.676 836.537 326.266 836.303 325.914 836.075 325.556 835.782 325.276 835.424 325.074 835.066 324.866 834.639 324.762 834.145 324.762 833.689 324.762 833.292 324.84 832.953 324.996 832.621 325.152 832.338 325.364 832.104 325.631 831.869 325.891 831.677 326.191 831.527 326.529 831.384 326.861 831.277 327.206 831.205 327.564L831.205 330.094C831.335 330.549 831.518 330.979 831.752 331.383 831.986 331.78 832.299 332.102 832.689 332.35 833.08 332.59 833.572 332.711 834.164 332.711 834.652 332.711 835.072 332.61 835.424 332.408 835.782 332.2 836.075 331.917 836.303 331.559 836.537 331.201 836.71 330.79 836.82 330.328 836.931 329.859 836.986 329.361 836.986 328.834ZM842.172 323.434 844.486 327.281 846.83 323.434 848.949 323.434 845.492 328.648 849.057 334 846.967 334 844.525 330.035 842.084 334 839.984 334 843.539 328.648 840.092 323.434 842.172 323.434Z" fill="#94A3B8"/><path d="M70.4668 585.232 69.0215 584.861 69.7344 577.781 77.0293 577.781 77.0293 579.451 71.2676 579.451 70.8379 583.318C71.0983 583.169 71.4271 583.029 71.8242 582.898 72.2279 582.768 72.6901 582.703 73.2109 582.703 73.8685 582.703 74.4577 582.817 74.9785 583.045 75.4993 583.266 75.9421 583.585 76.3066 584.002 76.6777 584.419 76.9609 584.92 77.1562 585.506 77.3516 586.092 77.4492 586.746 77.4492 587.469 77.4492 588.152 77.3548 588.781 77.166 589.354 76.9837 589.926 76.707 590.428 76.3359 590.857 75.9648 591.281 75.4961 591.609 74.9297 591.844 74.3698 592.078 73.709 592.195 72.9473 592.195 72.3743 592.195 71.8307 592.117 71.3164 591.961 70.8086 591.798 70.3529 591.554 69.9492 591.229 69.5521 590.896 69.2266 590.486 68.9727 589.998 68.7253 589.503 68.569 588.924 68.5039 588.26L70.2227 588.26C70.3008 588.794 70.457 589.243 70.6914 589.607 70.9258 589.972 71.2318 590.249 71.6094 590.438 71.9935 590.62 72.4395 590.711 72.9473 590.711 73.377 590.711 73.7578 590.636 74.0898 590.486 74.4219 590.337 74.7018 590.122 74.9297 589.842 75.1576 589.562 75.3301 589.223 75.4473 588.826 75.571 588.429 75.6328 587.983 75.6328 587.488 75.6328 587.039 75.571 586.622 75.4473 586.238 75.3236 585.854 75.138 585.519 74.8906 585.232 74.6497 584.946 74.3535 584.725 74.002 584.568 73.6504 584.406 73.2467 584.324 72.791 584.324 72.1855 584.324 71.7266 584.406 71.4141 584.568 71.1081 584.731 70.7923 584.952 70.4668 585.232ZM86.3652 577.762 86.5215 577.762 86.5215 579.295 86.3652 579.295C85.4082 579.295 84.6074 579.451 83.9629 579.764 83.3184 580.07 82.8073 580.483 82.4297 581.004 82.0521 581.518 81.7786 582.098 81.6094 582.742 81.4466 583.387 81.3652 584.041 81.3652 584.705L81.3652 586.795C81.3652 587.426 81.4401 587.986 81.5898 588.475 81.7396 588.956 81.9447 589.363 82.2051 589.695 82.4655 590.027 82.7585 590.278 83.084 590.447 83.416 590.617 83.7611 590.701 84.1191 590.701 84.5358 590.701 84.9069 590.623 85.2324 590.467 85.5579 590.304 85.8314 590.079 86.0527 589.793 86.2806 589.5 86.4531 589.155 86.5703 588.758 86.6875 588.361 86.7461 587.924 86.7461 587.449 86.7461 587.026 86.694 586.619 86.5898 586.229 86.4857 585.831 86.3262 585.48 86.1113 585.174 85.8965 584.861 85.6263 584.617 85.3008 584.441 84.9818 584.259 84.6009 584.168 84.1582 584.168 83.6569 584.168 83.1882 584.292 82.752 584.539 82.3223 584.78 81.9674 585.099 81.6875 585.496 81.4141 585.887 81.2578 586.313 81.2188 586.775L80.2617 586.766C80.3529 586.036 80.5221 585.415 80.7695 584.9 81.0234 584.38 81.3359 583.956 81.707 583.631 82.0846 583.299 82.5046 583.058 82.9668 582.908 83.4355 582.752 83.9303 582.674 84.4512 582.674 85.1608 582.674 85.7728 582.807 86.2871 583.074 86.8014 583.341 87.2246 583.699 87.5566 584.148 87.8887 584.591 88.1328 585.092 88.2891 585.652 88.4518 586.206 88.5332 586.775 88.5332 587.361 88.5332 588.032 88.4388 588.66 88.25 589.246 88.0612 589.832 87.778 590.346 87.4004 590.789 87.0293 591.232 86.5703 591.577 86.0234 591.824 85.4766 592.072 84.8418 592.195 84.1191 592.195 83.3509 592.195 82.6803 592.039 82.1074 591.727 81.5345 591.408 81.0592 590.984 80.6816 590.457 80.304 589.93 80.0208 589.344 79.832 588.699 79.6432 588.055 79.5488 587.4 79.5488 586.736L79.5488 585.887C79.5488 584.884 79.6497 583.901 79.8516 582.938 80.0534 581.974 80.4017 581.102 80.8965 580.32 81.3978 579.539 82.0911 578.917 82.9766 578.455 83.862 577.993 84.9915 577.762 86.3652 577.762ZM92.6836 583.465 92.6836 596.062 90.8672 596.062 90.8672 581.434 92.5273 581.434 92.6836 583.465ZM99.8027 586.629 99.8027 586.834C99.8027 587.602 99.7116 588.315 99.5293 588.973 99.347 589.624 99.0801 590.19 98.7285 590.672 98.3835 591.154 97.957 591.528 97.4492 591.795 96.9414 592.062 96.3587 592.195 95.7012 592.195 95.0306 592.195 94.4382 592.085 93.9238 591.863 93.4095 591.642 92.9733 591.32 92.6152 590.896 92.2572 590.473 91.9707 589.965 91.7559 589.373 91.5475 588.781 91.4043 588.113 91.3262 587.371L91.3262 586.277C91.4043 585.496 91.5508 584.796 91.7656 584.178 91.9805 583.559 92.2637 583.032 92.6152 582.596 92.9733 582.153 93.4062 581.818 93.9141 581.59 94.4219 581.355 95.0078 581.238 95.6719 581.238 96.3359 581.238 96.9251 581.368 97.4395 581.629 97.9538 581.883 98.3867 582.247 98.7383 582.723 99.0898 583.198 99.3535 583.768 99.5293 584.432 99.7116 585.089 99.8027 585.822 99.8027 586.629ZM97.9863 586.834 97.9863 586.629C97.9863 586.102 97.931 585.607 97.8203 585.145 97.7096 584.676 97.5371 584.266 97.3027 583.914 97.0749 583.556 96.7819 583.276 96.4238 583.074 96.0658 582.866 95.6393 582.762 95.1445 582.762 94.6888 582.762 94.2917 582.84 93.9531 582.996 93.6211 583.152 93.3379 583.364 93.1035 583.631 92.8691 583.891 92.6771 584.191 92.5273 584.529 92.3841 584.861 92.2767 585.206 92.2051 585.564L92.2051 588.094C92.3353 588.549 92.5176 588.979 92.752 589.383 92.9863 589.78 93.2988 590.102 93.6895 590.35 94.0801 590.59 94.5716 590.711 95.1641 590.711 95.6523 590.711 96.0723 590.61 96.4238 590.408 96.7819 590.2 97.0749 589.917 97.3027 589.559 97.5371 589.201 97.7096 588.79 97.8203 588.328 97.931 587.859 97.9863 587.361 97.9863 586.834ZM103.172 581.434 105.486 585.281 107.83 581.434 109.949 581.434 106.492 586.648 110.057 592 107.967 592 105.525 588.035 103.084 592 100.984 592 104.539 586.648 101.092 581.434 103.172 581.434Z" fill="#94A3B8"/><rect x="67" y="291" rx="4" width="8" height="8" fill="#94A3B8"/><rect x="221" y="283" rx="4" width="16" height="16" fill="#94A3B8"/><rect x="367" y="275" rx="4" width="24" height="24" fill="#94A3B8"/><rect x="512" y="267" rx="4" width="32" height="32" fill="#94A3B8"/><rect x="660" y="259" rx="4" width="40" height="40" fill="#94A3B8"/><rect x="806" y="251" rx="4" width="48" height="48" fill="#94A3B8"/><rect x="67" y="501" rx="4" width="56" height="56" fill="#94A3B8"/><rect x="368" y="485" rx="4" width="72" height="72" fill="#94A3B8"/><path d="M230.115 578.762 230.271 578.762 230.271 580.295 230.115 580.295C229.158 580.295 228.357 580.451 227.713 580.764 227.068 581.07 226.557 581.483 226.18 582.004 225.802 582.518 225.529 583.098 225.359 583.742 225.197 584.387 225.115 585.041 225.115 585.705L225.115 587.795C225.115 588.426 225.19 588.986 225.34 589.475 225.49 589.956 225.695 590.363 225.955 590.695 226.215 591.027 226.508 591.278 226.834 591.447 227.166 591.617 227.511 591.701 227.869 591.701 228.286 591.701 228.657 591.623 228.982 591.467 229.308 591.304 229.581 591.079 229.803 590.793 230.031 590.5 230.203 590.155 230.32 589.758 230.438 589.361 230.496 588.924 230.496 588.449 230.496 588.026 230.444 587.619 230.34 587.229 230.236 586.831 230.076 586.48 229.861 586.174 229.646 585.861 229.376 585.617 229.051 585.441 228.732 585.259 228.351 585.168 227.908 585.168 227.407 585.168 226.938 585.292 226.502 585.539 226.072 585.78 225.717 586.099 225.438 586.496 225.164 586.887 225.008 587.313 224.969 587.775L224.012 587.766C224.103 587.036 224.272 586.415 224.52 585.9 224.773 585.38 225.086 584.956 225.457 584.631 225.835 584.299 226.255 584.058 226.717 583.908 227.186 583.752 227.68 583.674 228.201 583.674 228.911 583.674 229.523 583.807 230.037 584.074 230.551 584.341 230.975 584.699 231.307 585.148 231.639 585.591 231.883 586.092 232.039 586.652 232.202 587.206 232.283 587.775 232.283 588.361 232.283 589.032 232.189 589.66 232 590.246 231.811 590.832 231.528 591.346 231.15 591.789 230.779 592.232 230.32 592.577 229.773 592.824 229.227 593.072 228.592 593.195 227.869 593.195 227.101 593.195 226.43 593.039 225.857 592.727 225.285 592.408 224.809 591.984 224.432 591.457 224.054 590.93 223.771 590.344 223.582 589.699 223.393 589.055 223.299 588.4 223.299 587.736L223.299 586.887C223.299 585.884 223.4 584.901 223.602 583.938 223.803 582.974 224.152 582.102 224.646 581.32 225.148 580.539 225.841 579.917 226.727 579.455 227.612 578.993 228.742 578.762 230.115 578.762ZM244.041 588.215 244.041 589.699 233.768 589.699 233.768 588.635 240.135 578.781 241.609 578.781 240.027 581.633 235.818 588.215 244.041 588.215ZM242.059 578.781 242.059 593 240.252 593 240.252 578.781 242.059 578.781ZM247.684 584.465 247.684 597.062 245.867 597.062 245.867 582.434 247.527 582.434 247.684 584.465ZM254.803 587.629 254.803 587.834C254.803 588.602 254.712 589.315 254.529 589.973 254.347 590.624 254.08 591.19 253.729 591.672 253.383 592.154 252.957 592.528 252.449 592.795 251.941 593.062 251.359 593.195 250.701 593.195 250.031 593.195 249.438 593.085 248.924 592.863 248.41 592.642 247.973 592.32 247.615 591.896 247.257 591.473 246.971 590.965 246.756 590.373 246.548 589.781 246.404 589.113 246.326 588.371L246.326 587.277C246.404 586.496 246.551 585.796 246.766 585.178 246.98 584.559 247.264 584.032 247.615 583.596 247.973 583.153 248.406 582.818 248.914 582.59 249.422 582.355 250.008 582.238 250.672 582.238 251.336 582.238 251.925 582.368 252.439 582.629 252.954 582.883 253.387 583.247 253.738 583.723 254.09 584.198 254.354 584.768 254.529 585.432 254.712 586.089 254.803 586.822 254.803 587.629ZM252.986 587.834 252.986 587.629C252.986 587.102 252.931 586.607 252.82 586.145 252.71 585.676 252.537 585.266 252.303 584.914 252.075 584.556 251.782 584.276 251.424 584.074 251.066 583.866 250.639 583.762 250.145 583.762 249.689 583.762 249.292 583.84 248.953 583.996 248.621 584.152 248.338 584.364 248.104 584.631 247.869 584.891 247.677 585.191 247.527 585.529 247.384 585.861 247.277 586.206 247.205 586.564L247.205 589.094C247.335 589.549 247.518 589.979 247.752 590.383 247.986 590.78 248.299 591.102 248.689 591.35 249.08 591.59 249.572 591.711 250.164 591.711 250.652 591.711 251.072 591.61 251.424 591.408 251.782 591.2 252.075 590.917 252.303 590.559 252.537 590.201 252.71 589.79 252.82 589.328 252.931 588.859 252.986 588.361 252.986 587.834ZM258.172 582.434 260.486 586.281 262.83 582.434 264.949 582.434 261.492 587.648 265.057 593 262.967 593 260.525 589.035 258.084 593 255.984 593 259.539 587.648 256.092 582.434 258.172 582.434Z" fill="#94A3B8"/><rect x="222" y="493" rx="4" width="64" height="64" fill="#94A3B8"/><rect x="513" y="477" rx="4" width="80" height="80" fill="#94A3B8"/><path d="M671.146 589.152C671.146 590.018 670.945 590.754 670.541 591.359 670.144 591.958 669.604 592.414 668.92 592.727 668.243 593.039 667.478 593.195 666.625 593.195 665.772 593.195 665.004 593.039 664.32 592.727 663.637 592.414 663.096 591.958 662.699 591.359 662.302 590.754 662.104 590.018 662.104 589.152 662.104 588.586 662.211 588.068 662.426 587.6 662.647 587.124 662.956 586.711 663.354 586.359 663.757 586.008 664.232 585.738 664.779 585.549 665.333 585.354 665.941 585.256 666.605 585.256 667.478 585.256 668.256 585.425 668.939 585.764 669.623 586.096 670.16 586.555 670.551 587.141 670.948 587.727 671.146 588.397 671.146 589.152ZM669.33 589.113C669.33 588.586 669.216 588.12 668.988 587.717 668.76 587.307 668.441 586.988 668.031 586.76 667.621 586.532 667.146 586.418 666.605 586.418 666.052 586.418 665.574 586.532 665.17 586.76 664.773 586.988 664.464 587.307 664.242 587.717 664.021 588.12 663.91 588.586 663.91 589.113 663.91 589.66 664.018 590.129 664.232 590.52 664.454 590.904 664.766 591.2 665.17 591.408 665.58 591.61 666.065 591.711 666.625 591.711 667.185 591.711 667.667 591.61 668.07 591.408 668.474 591.2 668.783 590.904 668.998 590.52 669.219 590.129 669.33 589.66 669.33 589.113ZM670.814 582.482C670.814 583.173 670.632 583.794 670.268 584.348 669.903 584.901 669.405 585.337 668.773 585.656 668.142 585.975 667.426 586.135 666.625 586.135 665.811 586.135 665.085 585.975 664.447 585.656 663.816 585.337 663.321 584.901 662.963 584.348 662.605 583.794 662.426 583.173 662.426 582.482 662.426 581.656 662.605 580.952 662.963 580.373 663.327 579.794 663.826 579.351 664.457 579.045 665.089 578.739 665.808 578.586 666.615 578.586 667.429 578.586 668.152 578.739 668.783 579.045 669.415 579.351 669.91 579.794 670.268 580.373 670.632 580.952 670.814 581.656 670.814 582.482ZM669.008 582.512C669.008 582.036 668.907 581.617 668.705 581.252 668.503 580.887 668.223 580.601 667.865 580.393 667.507 580.178 667.09 580.07 666.615 580.07 666.14 580.07 665.723 580.171 665.365 580.373 665.014 580.568 664.737 580.848 664.535 581.213 664.34 581.577 664.242 582.01 664.242 582.512 664.242 583 664.34 583.426 664.535 583.791 664.737 584.156 665.017 584.439 665.375 584.641 665.733 584.842 666.15 584.943 666.625 584.943 667.1 584.943 667.514 584.842 667.865 584.641 668.223 584.439 668.503 584.156 668.705 583.791 668.907 583.426 669.008 583 669.008 582.512ZM682.396 589.152C682.396 590.018 682.195 590.754 681.791 591.359 681.394 591.958 680.854 592.414 680.17 592.727 679.493 593.039 678.728 593.195 677.875 593.195 677.022 593.195 676.254 593.039 675.57 592.727 674.887 592.414 674.346 591.958 673.949 591.359 673.552 590.754 673.354 590.018 673.354 589.152 673.354 588.586 673.461 588.068 673.676 587.6 673.897 587.124 674.206 586.711 674.604 586.359 675.007 586.008 675.482 585.738 676.029 585.549 676.583 585.354 677.191 585.256 677.855 585.256 678.728 585.256 679.506 585.425 680.189 585.764 680.873 586.096 681.41 586.555 681.801 587.141 682.198 587.727 682.396 588.397 682.396 589.152ZM680.58 589.113C680.58 588.586 680.466 588.12 680.238 587.717 680.01 587.307 679.691 586.988 679.281 586.76 678.871 586.532 678.396 586.418 677.855 586.418 677.302 586.418 676.824 586.532 676.42 586.76 676.023 586.988 675.714 587.307 675.492 587.717 675.271 588.12 675.16 588.586 675.16 589.113 675.16 589.66 675.268 590.129 675.482 590.52 675.704 590.904 676.016 591.2 676.42 591.408 676.83 591.61 677.315 591.711 677.875 591.711 678.435 591.711 678.917 591.61 679.32 591.408 679.724 591.2 680.033 590.904 680.248 590.52 680.469 590.129 680.58 589.66 680.58 589.113ZM682.064 582.482C682.064 583.173 681.882 583.794 681.518 584.348 681.153 584.901 680.655 585.337 680.023 585.656 679.392 585.975 678.676 586.135 677.875 586.135 677.061 586.135 676.335 585.975 675.697 585.656 675.066 585.337 674.571 584.901 674.213 584.348 673.855 583.794 673.676 583.173 673.676 582.482 673.676 581.656 673.855 580.952 674.213 580.373 674.577 579.794 675.076 579.351 675.707 579.045 676.339 578.739 677.058 578.586 677.865 578.586 678.679 578.586 679.402 578.739 680.033 579.045 680.665 579.351 681.16 579.794 681.518 580.373 681.882 580.952 682.064 581.656 682.064 582.482ZM680.258 582.512C680.258 582.036 680.157 581.617 679.955 581.252 679.753 580.887 679.473 580.601 679.115 580.393 678.757 580.178 678.34 580.07 677.865 580.07 677.39 580.07 676.973 580.171 676.615 580.373 676.264 580.568 675.987 580.848 675.785 581.213 675.59 581.577 675.492 582.01 675.492 582.512 675.492 583 675.59 583.426 675.785 583.791 675.987 584.156 676.267 584.439 676.625 584.641 676.983 584.842 677.4 584.943 677.875 584.943 678.35 584.943 678.764 584.842 679.115 584.641 679.473 584.439 679.753 584.156 679.955 583.791 680.157 583.426 680.258 583 680.258 582.512ZM686.684 584.465 686.684 597.062 684.867 597.062 684.867 582.434 686.527 582.434 686.684 584.465ZM693.803 587.629 693.803 587.834C693.803 588.602 693.712 589.315 693.529 589.973 693.347 590.624 693.08 591.19 692.729 591.672 692.383 592.154 691.957 592.528 691.449 592.795 690.941 593.062 690.359 593.195 689.701 593.195 689.031 593.195 688.438 593.085 687.924 592.863 687.41 592.642 686.973 592.32 686.615 591.896 686.257 591.473 685.971 590.965 685.756 590.373 685.548 589.781 685.404 589.113 685.326 588.371L685.326 587.277C685.404 586.496 685.551 585.796 685.766 585.178 685.98 584.559 686.264 584.032 686.615 583.596 686.973 583.153 687.406 582.818 687.914 582.59 688.422 582.355 689.008 582.238 689.672 582.238 690.336 582.238 690.925 582.368 691.439 582.629 691.954 582.883 692.387 583.247 692.738 583.723 693.09 584.198 693.354 584.768 693.529 585.432 693.712 586.089 693.803 586.822 693.803 587.629ZM691.986 587.834 691.986 587.629C691.986 587.102 691.931 586.607 691.82 586.145 691.71 585.676 691.537 585.266 691.303 584.914 691.075 584.556 690.782 584.276 690.424 584.074 690.066 583.866 689.639 583.762 689.145 583.762 688.689 583.762 688.292 583.84 687.953 583.996 687.621 584.152 687.338 584.364 687.104 584.631 686.869 584.891 686.677 585.191 686.527 585.529 686.384 585.861 686.277 586.206 686.205 586.564L686.205 589.094C686.335 589.549 686.518 589.979 686.752 590.383 686.986 590.78 687.299 591.102 687.689 591.35 688.08 591.59 688.572 591.711 689.164 591.711 689.652 591.711 690.072 591.61 690.424 591.408 690.782 591.2 691.075 590.917 691.303 590.559 691.537 590.201 691.71 589.79 691.82 589.328 691.931 588.859 691.986 588.361 691.986 587.834ZM697.172 582.434 699.486 586.281 701.83 582.434 703.949 582.434 700.492 587.648 704.057 593 701.967 593 699.525 589.035 697.084 593 694.984 593 698.539 587.648 695.092 582.434 697.172 582.434Z" fill="#94A3B8"/><rect x="661" y="469" rx="4" width="88" height="88" fill="#94A3B8"/><path d="M809.979 591.486 810.164 591.486C811.206 591.486 812.052 591.34 812.703 591.047 813.354 590.754 813.855 590.36 814.207 589.865 814.559 589.37 814.799 588.814 814.93 588.195 815.06 587.57 815.125 586.929 815.125 586.271L815.125 584.094C815.125 583.449 815.05 582.876 814.9 582.375 814.757 581.874 814.555 581.454 814.295 581.115 814.041 580.777 813.751 580.52 813.426 580.344 813.1 580.168 812.755 580.08 812.391 580.08 811.974 580.08 811.6 580.165 811.268 580.334 810.942 580.497 810.665 580.728 810.438 581.027 810.216 581.327 810.047 581.678 809.93 582.082 809.812 582.486 809.754 582.925 809.754 583.4 809.754 583.824 809.806 584.234 809.91 584.631 810.014 585.028 810.174 585.386 810.389 585.705 810.604 586.024 810.87 586.278 811.189 586.467 811.515 586.649 811.896 586.74 812.332 586.74 812.736 586.74 813.113 586.662 813.465 586.506 813.823 586.343 814.139 586.125 814.412 585.852 814.692 585.572 814.913 585.256 815.076 584.904 815.245 584.553 815.343 584.185 815.369 583.801L816.229 583.801C816.229 584.341 816.121 584.875 815.906 585.402 815.698 585.923 815.405 586.398 815.027 586.828 814.65 587.258 814.207 587.603 813.699 587.863 813.191 588.117 812.638 588.244 812.039 588.244 811.336 588.244 810.727 588.107 810.213 587.834 809.699 587.561 809.275 587.196 808.943 586.74 808.618 586.285 808.374 585.777 808.211 585.217 808.055 584.65 807.977 584.077 807.977 583.498 807.977 582.821 808.071 582.186 808.26 581.594 808.449 581.001 808.729 580.48 809.1 580.031 809.471 579.576 809.93 579.221 810.477 578.967 811.03 578.713 811.668 578.586 812.391 578.586 813.204 578.586 813.898 578.749 814.471 579.074 815.044 579.4 815.509 579.836 815.867 580.383 816.232 580.93 816.499 581.545 816.668 582.229 816.837 582.912 816.922 583.615 816.922 584.338L816.922 584.992C816.922 585.728 816.873 586.477 816.775 587.238 816.684 587.993 816.505 588.716 816.238 589.406 815.978 590.096 815.597 590.715 815.096 591.262 814.594 591.802 813.94 592.232 813.133 592.551 812.332 592.863 811.342 593.02 810.164 593.02L809.979 593.02 809.979 591.486ZM826.365 578.762 826.521 578.762 826.521 580.295 826.365 580.295C825.408 580.295 824.607 580.451 823.963 580.764 823.318 581.07 822.807 581.483 822.43 582.004 822.052 582.518 821.779 583.098 821.609 583.742 821.447 584.387 821.365 585.041 821.365 585.705L821.365 587.795C821.365 588.426 821.44 588.986 821.59 589.475 821.74 589.956 821.945 590.363 822.205 590.695 822.465 591.027 822.758 591.278 823.084 591.447 823.416 591.617 823.761 591.701 824.119 591.701 824.536 591.701 824.907 591.623 825.232 591.467 825.558 591.304 825.831 591.079 826.053 590.793 826.281 590.5 826.453 590.155 826.57 589.758 826.688 589.361 826.746 588.924 826.746 588.449 826.746 588.026 826.694 587.619 826.59 587.229 826.486 586.831 826.326 586.48 826.111 586.174 825.896 585.861 825.626 585.617 825.301 585.441 824.982 585.259 824.601 585.168 824.158 585.168 823.657 585.168 823.188 585.292 822.752 585.539 822.322 585.78 821.967 586.099 821.688 586.496 821.414 586.887 821.258 587.313 821.219 587.775L820.262 587.766C820.353 587.036 820.522 586.415 820.77 585.9 821.023 585.38 821.336 584.956 821.707 584.631 822.085 584.299 822.505 584.058 822.967 583.908 823.436 583.752 823.93 583.674 824.451 583.674 825.161 583.674 825.773 583.807 826.287 584.074 826.801 584.341 827.225 584.699 827.557 585.148 827.889 585.591 828.133 586.092 828.289 586.652 828.452 587.206 828.533 587.775 828.533 588.361 828.533 589.032 828.439 589.66 828.25 590.246 828.061 590.832 827.778 591.346 827.4 591.789 827.029 592.232 826.57 592.577 826.023 592.824 825.477 593.072 824.842 593.195 824.119 593.195 823.351 593.195 822.68 593.039 822.107 592.727 821.535 592.408 821.059 591.984 820.682 591.457 820.304 590.93 820.021 590.344 819.832 589.699 819.643 589.055 819.549 588.4 819.549 587.736L819.549 586.887C819.549 585.884 819.65 584.901 819.852 583.938 820.053 582.974 820.402 582.102 820.896 581.32 821.398 580.539 822.091 579.917 822.977 579.455 823.862 578.993 824.992 578.762 826.365 578.762ZM832.684 584.465 832.684 597.062 830.867 597.062 830.867 582.434 832.527 582.434 832.684 584.465ZM839.803 587.629 839.803 587.834C839.803 588.602 839.712 589.315 839.529 589.973 839.347 590.624 839.08 591.19 838.729 591.672 838.383 592.154 837.957 592.528 837.449 592.795 836.941 593.062 836.359 593.195 835.701 593.195 835.031 593.195 834.438 593.085 833.924 592.863 833.41 592.642 832.973 592.32 832.615 591.896 832.257 591.473 831.971 590.965 831.756 590.373 831.548 589.781 831.404 589.113 831.326 588.371L831.326 587.277C831.404 586.496 831.551 585.796 831.766 585.178 831.98 584.559 832.264 584.032 832.615 583.596 832.973 583.153 833.406 582.818 833.914 582.59 834.422 582.355 835.008 582.238 835.672 582.238 836.336 582.238 836.925 582.368 837.439 582.629 837.954 582.883 838.387 583.247 838.738 583.723 839.09 584.198 839.354 584.768 839.529 585.432 839.712 586.089 839.803 586.822 839.803 587.629ZM837.986 587.834 837.986 587.629C837.986 587.102 837.931 586.607 837.82 586.145 837.71 585.676 837.537 585.266 837.303 584.914 837.075 584.556 836.782 584.276 836.424 584.074 836.066 583.866 835.639 583.762 835.145 583.762 834.689 583.762 834.292 583.84 833.953 583.996 833.621 584.152 833.338 584.364 833.104 584.631 832.869 584.891 832.677 585.191 832.527 585.529 832.384 585.861 832.277 586.206 832.205 586.564L832.205 589.094C832.335 589.549 832.518 589.979 832.752 590.383 832.986 590.78 833.299 591.102 833.689 591.35 834.08 591.59 834.572 591.711 835.164 591.711 835.652 591.711 836.072 591.61 836.424 591.408 836.782 591.2 837.075 590.917 837.303 590.559 837.537 590.201 837.71 589.79 837.82 589.328 837.931 588.859 837.986 588.361 837.986 587.834ZM843.172 582.434 845.486 586.281 847.83 582.434 849.949 582.434 846.492 587.648 850.057 593 847.967 593 845.525 589.035 843.084 593 840.984 593 844.539 587.648 841.092 582.434 843.172 582.434Z" fill="#94A3B8"/><rect x="807" y="461" rx="4" width="96" height="96" fill="#94A3B8"/><rect x="67" y="736" rx="4" width="104" height="104" fill="#94A3B8"/><path d="M229.119 860.703 229.119 875 227.312 875 227.312 862.959 223.67 864.287 223.67 862.656 228.836 860.703 229.119 860.703ZM240.369 860.703 240.369 875 238.562 875 238.562 862.959 234.92 864.287 234.92 862.656 240.086 860.703 240.369 860.703ZM254.998 873.516 254.998 875 245.691 875 245.691 873.701 250.35 868.516C250.923 867.878 251.365 867.337 251.678 866.895 251.997 866.445 252.218 866.045 252.342 865.693 252.472 865.335 252.537 864.971 252.537 864.6 252.537 864.131 252.439 863.708 252.244 863.33 252.055 862.946 251.775 862.64 251.404 862.412 251.033 862.184 250.584 862.07 250.057 862.07 249.425 862.07 248.898 862.194 248.475 862.441 248.058 862.682 247.745 863.021 247.537 863.457 247.329 863.893 247.225 864.395 247.225 864.961L245.418 864.961C245.418 864.16 245.594 863.428 245.945 862.764 246.297 862.1 246.818 861.572 247.508 861.182 248.198 860.785 249.048 860.586 250.057 860.586 250.955 860.586 251.723 860.745 252.361 861.064 252.999 861.377 253.488 861.82 253.826 862.393 254.171 862.959 254.344 863.623 254.344 864.385 254.344 864.801 254.272 865.225 254.129 865.654 253.992 866.077 253.8 866.501 253.553 866.924 253.312 867.347 253.029 867.764 252.703 868.174 252.384 868.584 252.042 868.988 251.678 869.385L247.869 873.516 254.998 873.516ZM258.934 866.465 258.934 879.062 257.117 879.062 257.117 864.434 258.777 864.434 258.934 866.465ZM266.053 869.629 266.053 869.834C266.053 870.602 265.962 871.315 265.779 871.973 265.597 872.624 265.33 873.19 264.979 873.672 264.633 874.154 264.207 874.528 263.699 874.795 263.191 875.062 262.609 875.195 261.951 875.195 261.281 875.195 260.688 875.085 260.174 874.863 259.66 874.642 259.223 874.32 258.865 873.896 258.507 873.473 258.221 872.965 258.006 872.373 257.798 871.781 257.654 871.113 257.576 870.371L257.576 869.277C257.654 868.496 257.801 867.796 258.016 867.178 258.23 866.559 258.514 866.032 258.865 865.596 259.223 865.153 259.656 864.818 260.164 864.59 260.672 864.355 261.258 864.238 261.922 864.238 262.586 864.238 263.175 864.368 263.689 864.629 264.204 864.883 264.637 865.247 264.988 865.723 265.34 866.198 265.604 866.768 265.779 867.432 265.962 868.089 266.053 868.822 266.053 869.629ZM264.236 869.834 264.236 869.629C264.236 869.102 264.181 868.607 264.07 868.145 263.96 867.676 263.787 867.266 263.553 866.914 263.325 866.556 263.032 866.276 262.674 866.074 262.316 865.866 261.889 865.762 261.395 865.762 260.939 865.762 260.542 865.84 260.203 865.996 259.871 866.152 259.588 866.364 259.354 866.631 259.119 866.891 258.927 867.191 258.777 867.529 258.634 867.861 258.527 868.206 258.455 868.564L258.455 871.094C258.585 871.549 258.768 871.979 259.002 872.383 259.236 872.78 259.549 873.102 259.939 873.35 260.33 873.59 260.822 873.711 261.414 873.711 261.902 873.711 262.322 873.61 262.674 873.408 263.032 873.2 263.325 872.917 263.553 872.559 263.787 872.201 263.96 871.79 264.07 871.328 264.181 870.859 264.236 870.361 264.236 869.834ZM269.422 864.434 271.736 868.281 274.08 864.434 276.199 864.434 272.742 869.648 276.307 875 274.217 875 271.775 871.035 269.334 875 267.234 875 270.789 869.648 267.342 864.434 269.422 864.434Z" fill="#94A3B8"/><rect x="222" y="728" rx="4" width="112" height="112" fill="#94A3B8"/><path d="M374.119 860.703 374.119 875 372.312 875 372.312 862.959 368.67 864.287 368.67 862.656 373.836 860.703 374.119 860.703ZM388.748 873.516 388.748 875 379.441 875 379.441 873.701 384.1 868.516C384.673 867.878 385.115 867.337 385.428 866.895 385.747 866.445 385.968 866.045 386.092 865.693 386.222 865.335 386.287 864.971 386.287 864.6 386.287 864.131 386.189 863.708 385.994 863.33 385.805 862.946 385.525 862.64 385.154 862.412 384.783 862.184 384.334 862.07 383.807 862.07 383.175 862.07 382.648 862.194 382.225 862.441 381.808 862.682 381.495 863.021 381.287 863.457 381.079 863.893 380.975 864.395 380.975 864.961L379.168 864.961C379.168 864.16 379.344 863.428 379.695 862.764 380.047 862.1 380.568 861.572 381.258 861.182 381.948 860.785 382.798 860.586 383.807 860.586 384.705 860.586 385.473 860.745 386.111 861.064 386.749 861.377 387.238 861.82 387.576 862.393 387.921 862.959 388.094 863.623 388.094 864.385 388.094 864.801 388.022 865.225 387.879 865.654 387.742 866.077 387.55 866.501 387.303 866.924 387.062 867.347 386.779 867.764 386.453 868.174 386.134 868.584 385.792 868.988 385.428 869.385L381.619 873.516 388.748 873.516ZM399.607 866.758 399.607 868.926C399.607 870.091 399.503 871.074 399.295 871.875 399.087 872.676 398.787 873.32 398.396 873.809 398.006 874.297 397.534 874.652 396.98 874.873 396.434 875.088 395.815 875.195 395.125 875.195 394.578 875.195 394.074 875.127 393.611 874.99 393.149 874.854 392.732 874.635 392.361 874.336 391.997 874.03 391.684 873.633 391.424 873.145 391.163 872.656 390.965 872.064 390.828 871.367 390.691 870.671 390.623 869.857 390.623 868.926L390.623 866.758C390.623 865.592 390.727 864.616 390.936 863.828 391.15 863.04 391.453 862.409 391.844 861.934 392.234 861.452 392.703 861.107 393.25 860.898 393.803 860.69 394.422 860.586 395.105 860.586 395.659 860.586 396.167 860.654 396.629 860.791 397.098 860.921 397.514 861.133 397.879 861.426 398.243 861.712 398.553 862.096 398.807 862.578 399.067 863.053 399.266 863.636 399.402 864.326 399.539 865.016 399.607 865.827 399.607 866.758ZM397.791 869.219 397.791 866.455C397.791 865.817 397.752 865.257 397.674 864.775 397.602 864.287 397.495 863.87 397.352 863.525 397.208 863.18 397.026 862.9 396.805 862.686 396.59 862.471 396.339 862.314 396.053 862.217 395.773 862.113 395.457 862.061 395.105 862.061 394.676 862.061 394.295 862.142 393.963 862.305 393.631 862.461 393.351 862.712 393.123 863.057 392.902 863.402 392.732 863.854 392.615 864.414 392.498 864.974 392.439 865.654 392.439 866.455L392.439 869.219C392.439 869.857 392.475 870.42 392.547 870.908 392.625 871.396 392.739 871.82 392.889 872.178 393.038 872.529 393.221 872.819 393.436 873.047 393.65 873.275 393.898 873.444 394.178 873.555 394.464 873.659 394.78 873.711 395.125 873.711 395.568 873.711 395.955 873.626 396.287 873.457 396.619 873.288 396.896 873.024 397.117 872.666 397.345 872.301 397.514 871.836 397.625 871.27 397.736 870.697 397.791 870.013 397.791 869.219ZM403.934 866.465 403.934 879.062 402.117 879.062 402.117 864.434 403.777 864.434 403.934 866.465ZM411.053 869.629 411.053 869.834C411.053 870.602 410.962 871.315 410.779 871.973 410.597 872.624 410.33 873.19 409.979 873.672 409.633 874.154 409.207 874.528 408.699 874.795 408.191 875.062 407.609 875.195 406.951 875.195 406.281 875.195 405.688 875.085 405.174 874.863 404.66 874.642 404.223 874.32 403.865 873.896 403.507 873.473 403.221 872.965 403.006 872.373 402.798 871.781 402.654 871.113 402.576 870.371L402.576 869.277C402.654 868.496 402.801 867.796 403.016 867.178 403.23 866.559 403.514 866.032 403.865 865.596 404.223 865.153 404.656 864.818 405.164 864.59 405.672 864.355 406.258 864.238 406.922 864.238 407.586 864.238 408.175 864.368 408.689 864.629 409.204 864.883 409.637 865.247 409.988 865.723 410.34 866.198 410.604 866.768 410.779 867.432 410.962 868.089 411.053 868.822 411.053 869.629ZM409.236 869.834 409.236 869.629C409.236 869.102 409.181 868.607 409.07 868.145 408.96 867.676 408.787 867.266 408.553 866.914 408.325 866.556 408.032 866.276 407.674 866.074 407.316 865.866 406.889 865.762 406.395 865.762 405.939 865.762 405.542 865.84 405.203 865.996 404.871 866.152 404.588 866.364 404.354 866.631 404.119 866.891 403.927 867.191 403.777 867.529 403.634 867.861 403.527 868.206 403.455 868.564L403.455 871.094C403.585 871.549 403.768 871.979 404.002 872.383 404.236 872.78 404.549 873.102 404.939 873.35 405.33 873.59 405.822 873.711 406.414 873.711 406.902 873.711 407.322 873.61 407.674 873.408 408.032 873.2 408.325 872.917 408.553 872.559 408.787 872.201 408.96 871.79 409.07 871.328 409.181 870.859 409.236 870.361 409.236 869.834ZM414.422 864.434 416.736 868.281 419.08 864.434 421.199 864.434 417.742 869.648 421.307 875 419.217 875 416.775 871.035 414.334 875 412.234 875 415.789 869.648 412.342 864.434 414.422 864.434Z" fill="#94A3B8"/><rect x="367" y="720" rx="4" width="120" height="120" fill="#94A3B8"/></svg>